<svg xmlns="http://www.w3.org/2000/svg" viewBox="0 0 140 40">
        <defs>
          <clipPath id="squareClip">
            <rect x="0" y="0" width="40" height="40" rx="20" />
          </clipPath>
        </defs>
        <g clip-path="url(#squareClip)">
          <rect x="0" y="0" width="40" height="40" fill="#FFB922" />
          <g transform="translate(20 20)">
            <g transform="scale(0.08)">
              <g transform="translate(-128 -128)">
                <path d="M82.34,69.66a8,8,0,0,1,0-11.32l40-40a8,8,0,0,1,11.32,0l40,40a8,8,0,0,1,0,11.32l-40,40a8,8,0,0,1-11.32,0Zm51.32,76.68a8,8,0,0,0-11.32,0l-40,40a8,8,0,0,0,0,11.32l40,40a8,8,0,0,0,11.32,0l40-40a8,8,0,0,0,0-11.32Zm104-24-40-40a8,8,0,0,0-11.32,0l-40,40a8,8,0,0,0,0,11.32l40,40a8,8,0,0,0,11.32,0l40-40A8,8,0,0,0,237.66,122.34Zm-128,0-40-40a8,8,0,0,0-11.32,0l-40,40a8,8,0,0,0,0,11.32l40,40a8,8,0,0,0,11.32,0l40-40A8,8,0,0,0,109.66,122.34Z" fill="#E65400"></path>
              </g>
            </g>
          </g>
        </g>
        <path fill="#FFB922" d="M54.07 29L49.13 29L45.55 13.16L49.32 13.16L51.67 26.05L51.94 26.05L54.72 13.16L59.11 13.16L61.90 26.05L62.18 26.05L64.54 13.16L68.11 13.16L64.49 29L59.66 29L56.98 16.11L56.76 16.11L54.07 29ZM71.64 29L67.90 29L73.32 13.16L78.36 13.16L83.78 29L80.04 29L76.03 15.90L75.67 15.90L71.64 29ZM81.24 25.88L70.94 25.88L70.94 23.53L81.24 23.53L81.24 25.88ZM88.22 29L84.77 29L84.77 13.16L88.22 13.16L88.22 29ZM94.92 29L85.49 29L85.49 26.10L94.92 26.10L94.92 29ZM99.22 29L95.76 29L95.76 13.16L99.22 13.16L99.22 29ZM105.91 29L96.48 29L96.48 26.10L105.91 26.10L105.91 29ZM112.73 24.18L105.72 24.18L105.72 21.06L112.73 21.06L112.73 24.18ZM117.48 29L114.00 29L114.00 13.16L117.48 13.16L117.48 29ZM126.22 29L116.40 29L116.40 26.19L126.22 26.19L126.22 29ZM125.02 22.28L116.40 22.28L116.40 19.71L125.02 19.71L125.02 22.28ZM126.17 15.94L116.40 15.94L116.40 13.16L126.17 13.16L126.17 15.94Z"/>
      </svg>